# 
# Wavefront OBJ file
# Converted by the DEEP Exploration Deep Exploration 4.0.10.871 Release
# Right Hemisphere, LTD
# http://www.righthemisphere.com/
# 
mtllib Wood_Pallet_obj.mtl
# object wood palet
g wood_palet
v -2.12911 12.2885 0.765168
v 2.3446 12.2885 0.765166
v -2.12912 16.9562 0.765168
v 2.34462 16.9562 0.765166
v -2.12917 12.2885 4.33052
v 2.3446 12.2885 4.33052
v -2.12912 16.9562 4.33052
v 2.34462 16.9562 4.33052
v -20.9817 12.2885 0.76516
v -15.7696 12.2885 0.765158
v -20.9817 16.9562 0.76516
v -15.7696 16.9562 0.765173
v -20.9817 12.2885 4.33051
v -15.7696 12.2885 4.33051
v -20.9817 16.9562 4.33051
v -15.7696 16.9562 4.33053
v 15.9561 12.2885 0.765161
v 21.1019 12.2885 0.765159
v 15.9561 16.9562 0.765161
v 21.1019 16.9562 0.765159
v 15.9561 12.2885 4.33051
v 21.1019 12.2885 4.33051
v 15.9561 16.9562 4.33051
v 21.1019 16.9562 4.33053
v -2.12911 -2.85176 0.765153
v 2.34461 -2.85176 0.765166
v -2.12912 1.81593 0.765168
v 2.34459 1.81592 0.765166
v -2.1291 -2.85176 4.33051
v 2.34461 -2.85176 4.33052
v -2.12912 1.81592 4.33052
v 2.34459 1.81592 4.33052
v -20.9817 -2.85177 0.76516
v -15.7695 -2.85176 0.765158
v -20.9817 1.81592 0.76516
v -15.7695 1.81595 0.765158
v -20.9817 -2.85177 4.33051
v -15.7695 -2.85177 4.33051
v -20.9817 1.81592 4.33051
v -15.7695 1.81595 4.33051
v 15.9561 -2.85173 0.765161
v 21.102 -2.85173 0.765159
v 15.9562 1.81599 0.765161
v 21.102 1.81599 0.765159
v 15.9561 -2.85173 4.33051
v 21.102 -2.85173 4.33051
v 15.9562 1.81599 4.33051
v 21.102 1.81599 4.33051
v -2.12909 -16.962 0.765153
v 2.34462 -16.962 0.765151
v -2.1291 -12.2943 0.765153
v 2.34464 -12.2943 0.765151
v -2.12909 -16.962 4.33052
v 2.34462 -16.962 4.33052
v -2.1291 -12.2943 4.33052
v 2.34464 -12.2943 4.33052
v -20.9817 -16.962 0.76516
v -15.7695 -16.962 0.765158
v -20.9817 -12.2943 0.76516
v -15.7695 -12.2943 0.765158
v -20.9817 -16.962 4.33053
v -15.7695 -16.962 4.33053
v -20.9817 -12.2943 4.33053
v -15.7695 -12.2943 4.33053
v 15.9562 -16.962 0.765161
v 21.0959 -16.962 0.765159
v 15.9561 -12.2943 0.765161
v 21.0959 -12.2943 0.765159
v 15.9562 -16.962 4.33053
v 21.0959 -16.962 4.33053
v 15.9561 -12.2943 4.33053
v 21.0959 -12.2943 4.33053
v 21.2229 1.82936 0.738014
v -21.0883 1.82935 0.738015
v -21.0883 -2.90565 0.73803
v 21.2229 -2.90562 0.738029
v -21.0883 -2.90565 0.0347067
v -21.0883 1.82935 0.0347067
v 21.2229 1.82936 0.0347208
v 21.2229 -2.90561 0.0347208
v -21.0883 16.9696 5.71032
v 21.2229 16.9696 5.71033
v 21.2229 -3.07451 5.71032
v -21.0883 -4.91171 5.71032
v 21.2229 -10.0046 5.71032
v -21.0883 2.01837 5.71032
v 21.2229 11.1554 5.71032
v -21.0883 11.1553 5.71032
v 21.2229 2.01844 5.71032
v -21.0883 -10.0046 5.71032
v 21.2229 -4.91167 5.71032
v -21.0882 -3.07458 5.71032
v -21.0883 16.9696 5.00701
v 21.2229 16.9696 5.00701
v 21.2229 -3.07451 5.007
v -21.0883 -4.91171 5.00701
v 21.2229 -10.0046 5.00701
v -21.0883 2.01837 5.00701
v 21.2229 11.1554 5.007
v -21.0883 11.1553 5.00701
v 21.2229 2.01844 5.00701
v -21.0883 -10.0047 5.00701
v 21.2229 -4.91167 5.00701
v -21.0882 -3.07458 5.00701
v -21.0196 -16.9806 5.02645
v -21.0196 16.9308 5.02645
v -2.15616 -16.9806 5.02644
v 15.9521 -16.9806 5.02645
v 21.1094 16.9308 5.02645
v 2.4414 16.9308 5.02644
v -15.7744 16.9308 5.02645
v -15.7744 -16.9806 5.02645
v 2.44141 -16.9806 5.02644
v 21.1094 -16.9806 5.02645
v 15.952 16.9308 5.02644
v -2.1562 16.9308 5.02644
v -21.0196 -16.9806 4.32313
v -21.0196 16.9308 4.32313
v -2.15616 -16.9806 4.32312
v 15.9521 -16.9806 4.32313
v 21.1094 16.9308 4.32313
v 2.4414 16.9308 4.32312
v -15.7744 16.9308 4.32313
v -15.7744 -16.9806 4.32313
v 2.44141 -16.9806 4.32312
v 21.1094 -16.9806 4.32313
v 15.952 16.9308 4.32311
v -2.1562 16.9308 4.32312
v 21.2229 16.9696 0.738029
v -21.0883 16.9696 0.738015
v -21.0883 12.2346 0.738015
v 21.2229 12.2346 0.738014
v -21.0883 12.2346 0.0347066
v -21.0883 16.9696 0.0347066
v 21.2229 16.9696 0.0347206
v 21.2229 12.2346 0.0347207
v 21.2229 -12.2809 0.738029
v -21.0883 -12.2809 0.73803
v -21.0883 -17.0159 0.73803
v 21.2229 -17.0159 0.738029
v -21.0883 -17.0159 0.0347068
v -21.0883 -12.2809 0.0347068
v 21.2229 -12.2809 0.0347209
v 21.2229 -17.0159 0.0347209
v 21.2229 8.94857 5.71032
v -21.0883 3.8557 5.71032
v 21.2229 3.85565 5.71032
v -21.0883 8.94862 5.71032
v 21.2229 8.94857 5.007
v -21.0883 3.8557 5.00701
v 21.2229 3.85565 5.007
v -21.0883 8.94862 5.00701
v 21.2229 -11.8417 5.71032
v -21.0883 -17.1317 5.71032
v 21.2229 -17.1318 5.71032
v -21.0883 -11.8417 5.71032
v 21.2229 -11.8417 5.007
v -21.0883 -17.1317 5.00701
v 21.2229 -17.1318 5.007
v -21.0883 -11.8417 5.00701
# 160 verticies
vt 0.889149 0.807725
vt 0.862571 0.807725
vt 0.862571 0.824206
vt 0.889149 0.824206
vt 0.823723 0.746656
vt 0.846824 0.746656
vt 0.846824 0.766726
vt 0.823723 0.766726
vt 0.823723 0.766726
vt 0.846824 0.766726
vt 0.920844 0.807983
vt 0.889879 0.807983
vt 0.889879 0.824464
vt 0.920844 0.824464
vt 0.823724 0.746656
vt 0.846824 0.746656
vt 0.846824 0.766726
vt 0.823724 0.766726
vt 0.89362 0.746829
vt 0.87052 0.746829
vt 0.87052 0.766899
vt 0.89362 0.766899
vt 0.861831 0.80776
vt 0.83126 0.80776
vt 0.83126 0.82424
vt 0.861831 0.82424
vt 0.870411 0.746908
vt 0.893511 0.746908
vt 0.893511 0.766977
vt 0.870411 0.766977
vt 0.83126 0.80776
vt 0.83126 0.82424
vt 0.846824 0.746656
vt 0.823724 0.746656
vt 0.823724 0.766726
vt 0.846824 0.766726
vt 0.889149 0.807725
vt 0.862571 0.807725
vt 0.862571 0.824206
vt 0.889149 0.824206
vt 0.823805 0.746746
vt 0.846906 0.746746
vt 0.846906 0.766815
vt 0.823805 0.766815
vt 0.920844 0.807983
vt 0.920844 0.824464
vt 0.823805 0.746746
vt 0.846906 0.746746
vt 0.846906 0.766815
vt 0.823805 0.766815
vt 0.870193 0.746838
vt 0.847093 0.746838
vt 0.847093 0.766908
vt 0.870193 0.766908
vt 0.83126 0.80776
vt 0.83126 0.82424
vt 0.861831 0.82424
vt 0.84714 0.746791
vt 0.87024 0.746791
vt 0.87024 0.766861
vt 0.84714 0.766861
vt 0.846906 0.746746
vt 0.823806 0.746746
vt 0.823806 0.766815
vt 0.846906 0.766815
vt 0.823726 0.74679
vt 0.846826 0.74679
vt 0.846826 0.76686
vt 0.823726 0.76686
vt 0.846826 0.74679
vt 0.823726 0.74679
vt 0.823726 0.76686
vt 0.846826 0.76686
vt 0.846826 0.76686
vt 0.823726 0.76686
vt 0.86183 0.80776
vt 0.831296 0.80776
vt 0.831296 0.82424
vt 0.86183 0.82424
vt 0.823726 0.74679
vt 0.846826 0.74679
vt 0.846826 0.76686
vt 0.831296 0.80776
vt 0.86183 0.80776
vt 0.831296 0.82424
vt 0.923145 0.788597
vt 0.754465 0.788597
vt 0.754465 0.773512
vt 0.923145 0.773512
vt 0.754465 0.804272
vt 0.754465 0.789187
vt 0.923145 0.789187
vt 0.923145 0.804272
vt 0.912253 0.769958
vt 0.751178 0.769958
vt 0.751178 0.767615
vt 0.912253 0.767615
vt 0.77537 0.759828
vt 0.797687 0.759828
vt 0.797687 0.757028
vt 0.77537 0.757028
vt 0.797688 0.759828
vt 0.77537 0.759828
vt 0.77537 0.757028
vt 0.797688 0.757028
vt 0.753567 0.77406
vt 0.922247 0.77406
vt 0.922247 0.790286
vt 0.753567 0.790286
vt 0.922051 0.848775
vt 0.75337 0.848775
vt 0.75337 0.830252
vt 0.922051 0.830252
vt 0.921995 0.865271
vt 0.753315 0.865271
vt 0.753315 0.849046
vt 0.921995 0.849046
vt 0.922247 0.790769
vt 0.922247 0.806995
vt 0.753567 0.806995
vt 0.753567 0.79077
vt 0.75337 0.811375
vt 0.75337 0.792851
vt 0.922051 0.792851
vt 0.922051 0.811375
vt 0.753315 0.805532
vt 0.753315 0.789307
vt 0.921995 0.789306
vt 0.921995 0.805532
vt 0.751137 0.770028
vt 0.912211 0.770028
vt 0.912211 0.767685
vt 0.751137 0.767685
vt 0.822745 0.763239
vt 0.79874 0.763239
vt 0.79874 0.760439
vt 0.822745 0.760439
vt 0.751137 0.767685
vt 0.912211 0.767685
vt 0.79874 0.763239
vt 0.822745 0.763239
vt 0.822745 0.760439
vt 0.770789 0.762972
vt 0.798193 0.762972
vt 0.798193 0.760172
vt 0.770789 0.760172
vt 0.770789 0.762972
vt 0.770789 0.760172
vt 0.773783 0.763066
vt 0.797788 0.763066
vt 0.797788 0.760266
vt 0.773783 0.760266
vt 0.773784 0.763066
vt 0.773784 0.760266
vt 0.886827 0.794906
vt 0.782169 0.794906
vt 0.782169 0.776512
vt 0.886827 0.776512
vt 0.783061 0.773224
vt 0.88772 0.773224
vt 0.88772 0.791932
vt 0.783061 0.791932
vt 0.78268 0.813275
vt 0.887338 0.813275
vt 0.887338 0.829673
vt 0.78268 0.829673
vt 0.887495 0.811802
vt 0.887495 0.830197
vt 0.782836 0.830197
vt 0.782836 0.811802
vt 0.782836 0.811005
vt 0.782836 0.792297
vt 0.887495 0.792297
vt 0.887495 0.811005
vt 0.782549 0.812361
vt 0.782549 0.795963
vt 0.887207 0.795963
vt 0.887207 0.812361
vt 0.910894 0.770323
vt 0.751059 0.770323
vt 0.751059 0.767523
vt 0.910894 0.767523
vt 0.77278 0.765873
vt 0.753147 0.765873
vt 0.753147 0.76353
vt 0.77278 0.76353
vt 0.753147 0.765873
vt 0.77278 0.765873
vt 0.77278 0.76353
vt 0.753147 0.76353
vt 0.751059 0.770323
vt 0.910894 0.770323
vt 0.910894 0.767523
vt 0.751059 0.767523
vt 0.753083 0.765872
vt 0.773051 0.765872
vt 0.773051 0.763529
vt 0.753083 0.763529
vt 0.910894 0.767523
vt 0.773051 0.765872
vt 0.753083 0.765872
vt 0.753083 0.763529
vt 0.773051 0.763529
vt 0.751059 0.767523
vt 0.754653 0.762684
vt 0.772155 0.762684
vt 0.772155 0.76034
vt 0.754653 0.76034
vt 0.772155 0.762684
vt 0.754653 0.762684
vt 0.754653 0.76034
vt 0.772155 0.76034
vt 0.923455 0.807223
vt 0.754775 0.807223
vt 0.754775 0.792138
vt 0.923455 0.792138
vt 0.754775 0.791823
vt 0.754775 0.776738
vt 0.923455 0.776737
vt 0.923455 0.791822
vt 0.912253 0.769958
vt 0.912253 0.767615
vt 0.799025 0.763182
vt 0.821343 0.763182
vt 0.821343 0.760382
vt 0.799025 0.760382
vt 0.821343 0.763182
vt 0.799025 0.760382
vt 0.821343 0.760382
vt 0.923145 0.819947
vt 0.754465 0.819947
vt 0.754465 0.804862
vt 0.923145 0.804862
vt 0.754775 0.822664
vt 0.754775 0.807579
vt 0.923455 0.807579
vt 0.923455 0.822664
vt 0.75254 0.759742
vt 0.774857 0.759742
vt 0.774857 0.756942
vt 0.75254 0.756942
vt 0.774858 0.759742
vt 0.75254 0.759742
vt 0.75254 0.756942
vt 0.774858 0.756942
vt 0.922247 0.823351
vt 0.922247 0.807126
vt 0.753567 0.807126
vt 0.753567 0.823351
vt 0.754775 0.826838
vt 0.923455 0.826838
vt 0.923455 0.810612
vt 0.754775 0.810612
vt 0.773585 0.766633
vt 0.773585 0.763833
vt 0.79759 0.763833
vt 0.79759 0.766633
vt 0.79759 0.766633
vt 0.79759 0.763833
vt 0.773585 0.763833
vt 0.773585 0.766633
vt 0.753315 0.866028
vt 0.753315 0.882881
vt 0.921996 0.882881
vt 0.921996 0.866028
vt 0.922051 0.812066
vt 0.75337 0.812066
vt 0.75337 0.82892
vt 0.922051 0.828919
vt 0.822858 0.760049
vt 0.822858 0.757249
vt 0.797924 0.757249
vt 0.797924 0.760049
vt 0.797924 0.760049
vt 0.797924 0.757249
vt 0.822858 0.757249
vt 0.822858 0.760049
# 277 texture verticies
vn 2.1317e-007 -1 -5.34964e-007
vn -1.06913e-013 -1 -2.67484e-007
vn 4.2634e-007 -1 -8.02444e-007
vn 1 -3.26903e-006 -4.01227e-007
vn 1 -3.26902e-006 -4.01227e-007
vn 1 -3.26903e-006 -4.01227e-007
vn 2.17388e-013 1 5.34968e-007
vn 2.06697e-013 1 5.34968e-007
vn 2.2808e-013 1 5.34968e-007
vn -1 3.29456e-006 -8.19169e-006
vn -1 -3.26903e-006 -1.67846e-005
vn -1 9.85815e-006 4.01231e-007
vn 9.14867e-008 -1 -4.01226e-007
vn -1.04002e-013 -1 -2.67484e-007
vn 1.82973e-007 -1 -5.34968e-007
vn 1 1.02143e-007 3.87852e-006
vn 1 3.269e-006 -2.67482e-007
vn 1 -3.06472e-006 8.02451e-006
vn -1.82973e-007 1 2.67484e-007
vn -3.65945e-007 1 1.95769e-013
vn -1.37038e-012 1 5.34968e-007
vn -1 -3.47332e-006 2.67483e-007
vn -1 -3.67763e-006 -1.96741e-012
vn -1 -3.269e-006 5.34968e-007
vn 2.77995e-007 -1 -4.01226e-007
vn 3.7066e-007 -1 -5.34968e-007
vn 1.8533e-007 -1 -2.67484e-007
vn 1 2.04314e-007 4.01224e-006
vn 1 -3.269e-006 8.55944e-006
vn 1 3.67763e-006 -5.34966e-007
vn -5.88678e-013 1 5.34966e-007
vn 2.10684e-013 1 5.34968e-007
vn -1.38804e-012 1 5.34965e-007
vn -1 3.16685e-006 4.01227e-007
vn -1 3.06469e-006 2.67485e-007
vn -1 3.269e-006 5.34969e-007
vn 1.5988e-007 -1 -2.67484e-007
vn 3.73054e-007 -1 -5.34968e-007
vn -5.32932e-008 -1 2.13826e-014
vn 1 3.26903e-006 -4.01224e-007
vn 1 3.26903e-006 -4.01225e-007
vn 1 3.26902e-006 -4.01224e-007
vn -1.33233e-007 1 5.34968e-007
vn 7.99402e-008 1 8.02451e-007
vn -3.46406e-007 1 2.67484e-007
vn -1 -3.26903e-006 4.01224e-007
vn -1 -3.26903e-006 4.01226e-007
vn -1 -3.26903e-006 4.01223e-007
vn 2.97329e-007 -1 -7.69014e-007
vn 4.57429e-007 -1 -1.00306e-006
vn 1.37229e-007 -1 -5.34968e-007
vn 1 2.04314e-007 4.01225e-006
vn 1 3.47332e-006 -2.67484e-007
vn 1 -3.06469e-006 8.29199e-006
vn -6.02663e-006 1 1.17025e-007
vn -5.94658e-006 1 2.34048e-007
vn -6.10668e-006 1 1.63344e-012
vn -1 -3.26903e-006 -1.25697e-012
vn -1 -3.26903e-006 -1.74882e-012
vn -1 -3.26902e-006 -7.6511e-013
vn 9.26648e-008 -1 -5.34968e-007
vn -9.26651e-008 -1 -2.67484e-007
vn 2.77995e-007 -1 -8.02451e-007
vn 1 -9.80701e-006 -5.3497e-007
vn -2.08495e-007 1 2.67484e-007
vn -2.08495e-007 1 2.67484e-007
vn -2.08495e-007 1 2.67484e-007
vn -1 3.16685e-006 4.01227e-007
vn -1 3.269e-006 5.3497e-007
vn -1 3.06469e-006 2.67485e-007
vn 4.26346e-007 -1 -1.56805e-013
vn 4.26346e-007 -1 -1.4255e-013
vn 4.26346e-007 -1 -1.7106e-013
vn 1 -3.29457e-006 -3.6779e-007
vn 1 -3.26903e-006 -4.01226e-007
vn 1 -3.32011e-006 -3.34353e-007
vn 1.13687e-013 1 2.67483e-007
vn -2.13171e-007 1 8.55295e-014
vn 2.13172e-007 1 5.34965e-007
vn -1 -3.26903e-006 4.01224e-007
vn 3.65943e-007 -1 -1.46825e-013
vn 3.65943e-007 -1 -9.78835e-014
vn 3.65943e-007 -1 -1.95767e-013
vn 1 -3.16685e-006 -4.01225e-007
vn 1 -3.06469e-006 -5.34967e-007
vn 1 -3.269e-006 -2.67483e-007
vn -5.85509e-006 1 5.34968e-007
vn -1 3.26902e-006 5.34966e-007
vn -1 3.26902e-006 5.34965e-007
vn -1 3.26902e-006 5.34967e-007
vn 3.71096e-007 -1 -5.34965e-007
vn 0 -1 0
vn 7.42191e-007 -1 -1.06993e-006
vn 1 3.269e-006 -5.34964e-007
vn 1 3.269e-006 -5.34962e-007
vn 1 3.26901e-006 -5.34965e-007
vn -2.78322e-007 1 6.68707e-007
vn -5.56644e-007 1 2.67483e-007
vn 3.97047e-013 1 1.06993e-006
vn -1 -3.37116e-006 4.01222e-007
vn -1 -3.26901e-006 5.34962e-007
vn -1 -3.47332e-006 2.67482e-007
vn 2.8877e-008 3.22886e-006 1
vn 2.95825e-008 3.22255e-006 1
vn 2.81716e-008 3.23516e-006 1
vn 3.3193e-007 -7.08176e-009 -1
vn 3.3193e-007 -7.08067e-009 -1
vn 3.3193e-007 -7.08285e-009 -1
vn -2.00038e-007 1 6.78007e-007
vn -1.88769e-007 1 1.35601e-006
vn -2.11308e-007 1 0
vn -1 -6.04228e-007 1.35595e-006
vn -1 -8.05638e-007 0
vn -1 -4.02819e-007 2.71191e-006
vn 9.18487e-007 -1 -1.35598e-006
vn 8.95947e-007 -1 -2.42973e-012
vn 9.41027e-007 -1 -2.71197e-006
vn 1 -6.04232e-006 -1.229e-011
vn 1 -6.04232e-006 -1.63866e-011
vn 1 -6.04232e-006 -8.19347e-012
vn 2.25395e-008 -2.30393e-019 1
vn 2.25395e-008 6.75298e-014 1
vn 2.25396e-008 -6.75303e-014 1
vn -1.46504e-007 -1.3122e-006 1
vn -3.26823e-007 -2.89474e-012 1
vn 3.38154e-008 -2.6244e-006 1
vn 3.38093e-008 1.07626e-013 1
vn 3.38093e-008 1.01295e-013 1
vn 3.38093e-008 1.13957e-013 1
vn -3.38093e-008 -6.33089e-015 -1
vn -3.38093e-008 -1.13957e-013 -1
vn -3.38093e-008 1.01295e-013 -1
vn -2.14129e-007 1.3122e-006 -1
vn -3.38093e-008 -1.22001e-013 -1
vn -3.94448e-007 2.6244e-006 -1
vn -2.14128e-007 1.49803e-006 -1
vn -3.94447e-007 2.99606e-006 -1
vn 5.63489e-007 -1 2.03398e-005
vn 1.80317e-007 -1 4.33915e-005
vn 9.46661e-007 -1 -2.71197e-006
vn 1 3.18331e-006 -1.35598e-006
vn 1 2.99606e-006 8.12521e-012
vn 1 3.37057e-006 -2.71197e-006
vn -9.24122e-007 1 1.25309e-012
vn -9.24122e-007 1 2.50619e-012
vn -9.24122e-007 1 0
vn -1 2.99607e-006 -6.50017e-011
vn -1 2.99608e-006 0
vn -1 2.99606e-006 -1.30003e-010
vn -1.80316e-007 1 0
vn -1 -6.23285e-006 2.16957e-005
vn -1 -8.85721e-006 0
vn -1 -3.60849e-006 4.33915e-005
vn 2.33284e-006 -1 6.77942e-007
vn 2.32157e-006 -1 1.35588e-006
vn 2.34411e-006 -1 0
vn 1 -1.9683e-006 0
vn 1.61721e-006 -1 0
vn 1 1.87193e-007 2.03398e-005
vn 1 2.99606e-006 0
vn 1 -2.62167e-006 4.06795e-005
vn -1.6144e-006 1 1.18645e-006
vn -1.59467e-006 1 2.37291e-006
vn -1.63412e-006 1 0
vn -1 -3.37057e-006 0
vn -1.10948e-006 2.39041e-007 1
vn -2.5888e-006 1.40608e-008 1
vn 3.69831e-007 4.64022e-007 1
vn 4.09089e-007 7.03106e-009 1
vn 3.63635e-007 3.886e-013 1
vn 4.54544e-007 1.40617e-008 1
vn 4.14859e-007 1.40615e-008 1
vn 4.1486e-007 1.40617e-008 1
vn 4.14857e-007 1.40613e-008 1
vn 1.10948e-006 -2.39041e-007 -1
vn 2.5888e-006 -1.40608e-008 -1
vn -3.69831e-007 -4.64022e-007 -1
vn -4.09089e-007 -7.03106e-009 -1
vn -3.63635e-007 -3.886e-013 -1
vn -4.54544e-007 -1.40617e-008 -1
vn -4.14859e-007 -1.40615e-008 -1
vn -4.1486e-007 -1.40617e-008 -1
vn -4.14857e-007 -1.40613e-008 -1
vn 1 1.68735e-007 2.28797e-013
vn 1 1.68735e-007 0
vn 1 1.68735e-007 4.57594e-013
vn -1.84918e-007 1 1.35595e-006
vn -7.02059e-012 1 2.71191e-006
vn -3.69829e-007 1 0
vn -1 -1.05459e-006 6.77977e-007
vn -1 -1.06866e-006 0
vn -1 -1.04053e-006 1.35595e-006
vn -1 -1.06866e-006 0
vn 3.63635e-007 -1 0
vn 1 1.06866e-006 0
vn -3.63635e-007 1 0
vn -1 -1.08623e-006 5.08483e-007
vn -1 -1.08975e-006 3.38989e-007
vn -1 -1.08272e-006 6.77977e-007
vn 4.1486e-007 -1 -2.10949e-013
vn 4.1486e-007 -1 -2.81266e-013
vn 4.1486e-007 -1 -1.40633e-013
vn 1 1.82796e-007 -3.38988e-007
vn 1 1.82796e-007 -3.38989e-007
vn 1 1.82796e-007 -3.38988e-007
vn -2.07428e-007 1 1.35595e-006
vn 1.12505e-012 1 2.71191e-006
vn -4.14857e-007 1 1.40632e-013
vn -1.5214e-007 -1.61129e-006 1
vn -3.32458e-007 -2.27666e-012 1
vn 2.81774e-008 -3.22257e-006 1
vn 3.31842e-007 -7.07964e-009 -1
vn 3.31842e-007 -7.07858e-009 -1
vn 3.31842e-007 -7.08071e-009 -1
vn -9.24121e-007 1 1.35598e-006
vn -9.01582e-007 1 2.71197e-006
vn -9.4666e-007 1 0
vn -1 -6.84797e-006 0
vn 9.24121e-007 -1 0
vn 1 4.02822e-007 5.46219e-013
vn 1 4.02822e-007 0
vn 1 4.02822e-007 1.09244e-012
vn 2.81744e-008 1.25882e-008 1
vn 2.81744e-008 1.25883e-008 1
vn 2.81744e-008 1.25882e-008 1
vn 3.31886e-007 -6.68411e-009 -1
vn 3.31842e-007 -6.29177e-009 -1
vn 3.3193e-007 -7.07644e-009 -1
vn -1.80316e-007 1 0
vn -1 -6.84792e-006 0
vn 9.9174e-007 -1 4.3033e-011
vn 9.91741e-007 -1 0
vn 9.91739e-007 -1 8.6066e-011
vn 1 6.84797e-006 4.33915e-005
vn 1 4.02823e-007 8.67829e-005
vn 1 1.32931e-005 0
vn 3.38093e-008 -9.49644e-014 1
vn 3.38093e-008 -1.01295e-013 1
vn 3.38093e-008 -8.86334e-014 1
vn -3.94442e-007 1.10792e-012 -1
vn -3.94442e-007 1.18178e-012 -1
vn -3.94442e-007 1.03406e-012 -1
vn 1.20587e-006 1 6.77992e-007
vn 1.21714e-006 1 0
vn 1.1946e-006 1 1.35598e-006
vn 1 -2.62157e-006 -1.77736e-012
vn 1 -2.62157e-006 -3.55473e-012
vn 1 -2.62157e-006 0
vn -1.20023e-006 -1 -1.35597e-006
vn -1.20023e-006 -1 -1.35598e-006
vn -1.20023e-006 -1 -1.35595e-006
vn -1 2.99608e-006 4.06263e-012
vn 2.25395e-008 -4.06309e-015 1
vn 2.25395e-008 -7.31396e-014 1
vn 2.25396e-008 6.50134e-014 1
vn -3.83172e-007 6.90761e-014 -1
vn -3.83172e-007 1.24338e-012 -1
vn -3.83172e-007 -1.10523e-012 -1
vn -8.56504e-007 -1 -2.16953e-005
vn -4.9587e-007 -1 0
vn -1.21714e-006 -1 -4.33905e-005
vn -1 -2.88441e-006 0
vn 4.7333e-007 1 0
vn 1 -3.24496e-006 -7.04004e-011
vn 1 -3.24496e-006 -1.40801e-010
vn 1 -3.24495e-006 0
# 266 normals
usemtl Standard_9
f  1/1/1 2/2/2 6/3/1 5/4/3
f  2/5/4 4/6/5 8/7/4 6/8/6
f  4/2/7 3/1/8 7/4/7 8/3/9
f  3/6/10 1/5/11 5/9/10 7/10/12
f  9/11/13 10/12/14 14/13/13 13/14/15
f  10/15/16 12/16/17 16/17/16 14/18/18
f  12/12/19 11/11/20 15/14/19 16/13/21
f  11/19/22 9/20/23 13/21/22 15/22/24
f  17/23/25 18/24/26 22/25/25 21/26/27
f  18/27/28 20/28/29 24/29/28 22/30/30
f  20/31/31 19/23/32 23/26/31 24/32/33
f  19/33/34 17/34/35 21/35/34 23/36/36
f  25/37/37 26/38/38 30/39/37 29/40/39
f  26/41/40 28/42/41 32/43/40 30/44/42
f  28/2/43 27/1/44 31/4/43 32/3/45
f  27/42/46 25/41/47 29/44/46 31/43/48
f  33/45/49 34/12/50 38/13/49 37/46/51
f  34/47/52 36/48/53 40/49/52 38/50/54
f  36/12/55 35/45/56 39/46/55 40/13/57
f  35/51/58 33/52/59 37/53/58 39/54/60
f  41/23/61 42/55/62 46/56/61 45/57/63
f  42/58/64 44/59/64 48/60/64 46/61/64
f  44/55/65 43/23/66 47/57/65 48/56/67
f  43/62/68 41/63/69 45/64/68 47/65/70
f  49/37/71 50/38/72 54/39/71 53/40/73
f  50/66/74 52/67/75 56/68/74 54/69/76
f  52/38/77 51/37/78 55/40/77 56/39/79
f  51/70/80 49/71/80 53/72/80 55/73/80
f  57/45/81 58/12/82 62/13/81 61/46/83
f  58/66/84 60/67/85 64/74/84 62/75/86
f  60/12/87 59/45/87 63/46/87 64/13/87
f  59/67/88 57/66/89 61/75/88 63/74/90
f  65/76/91 66/77/92 70/78/91 69/79/93
f  66/80/94 68/81/95 72/82/94 70/69/96
f  68/83/97 67/84/98 71/79/97 72/85/99
f  67/81/100 65/80/101 69/69/100 71/82/102
f  73/86/103 74/87/104 75/88/103 76/89/105
f  77/90/106 78/91/107 79/92/106 80/93/108
f  74/94/109 73/95/110 79/96/109 78/97/111
f  75/98/112 74/99/113 78/100/112 77/101/114
f  76/95/115 75/94/116 77/97/115 80/96/117
f  73/102/118 76/103/119 80/104/118 79/105/120
f  90/106/121 85/107/122 91/108/121 84/109/123
f  82/110/124 81/111/125 88/112/124 87/113/126
f  92/114/127 83/115/128 89/116/127 86/117/129
f  103/118/130 97/119/131 102/120/130 96/121/132
f  100/122/133 93/123/134 94/124/133 99/125/135
f  101/126/136 95/127/137 104/128/136 98/129/131
f  85/130/138 90/131/139 102/132/138 97/133/140
f  91/134/141 85/135/142 97/136/141 103/137/143
f  84/131/144 91/130/145 103/138/144 96/139/146
f  90/140/147 84/141/148 96/142/147 102/136/149
f  81/131/150 82/130/150 94/138/150 93/139/150
f  88/143/151 81/144/152 93/145/151 100/146/153
f  87/130/154 88/131/155 100/139/154 99/138/156
f  82/144/157 87/147/157 99/148/157 94/145/157
f  83/131/158 92/130/158 104/138/158 95/139/158
f  89/149/159 83/150/160 95/151/159 101/152/161
f  86/130/162 89/131/163 101/139/162 98/138/164
f  92/150/165 86/153/165 98/154/165 104/151/165
f  114/155/166 109/156/167 115/157/166 108/158/168
f  106/159/169 105/160/170 112/161/169 111/162/171
f  116/163/172 107/164/173 113/165/172 110/166/174
f  127/167/175 121/168/176 126/169/175 120/170/177
f  124/171/178 117/172/179 118/173/178 123/174/180
f  125/175/181 119/176/182 128/177/181 122/178/183
f  109/179/184 114/180/185 126/181/184 121/182/186
f  115/183/187 109/184/188 121/185/187 127/186/189
f  108/180/190 115/179/191 127/182/190 120/181/192
f  114/187/92 108/188/92 120/189/92 126/190/92
f  105/191/193 106/192/193 118/193/193 117/194/193
f  112/195/194 105/196/194 117/197/194 124/198/194
f  111/179/195 112/191/195 124/194/195 123/199/195
f  106/200/196 111/201/196 123/202/196 118/203/196
f  107/191/197 116/179/198 128/182/197 119/204/199
f  113/205/200 107/206/201 119/207/200 125/208/202
f  110/179/203 113/191/204 125/204/203 122/182/205
f  116/209/206 110/210/207 122/211/206 128/212/208
f  129/213/209 130/214/210 131/215/209 132/216/211
f  133/217/212 134/218/213 135/219/212 136/220/214
f  130/221/215 129/95/216 135/96/215 134/222/217
f  131/223/218 130/224/218 134/225/218 133/226/218
f  132/95/219 131/221/219 133/222/219 136/96/219
f  129/227/220 132/223/221 136/228/220 135/229/222
f  137/230/223 138/231/224 139/232/223 140/233/225
f  141/234/226 142/235/227 143/236/226 144/237/228
f  138/94/229 137/95/229 143/96/229 142/97/229
f  139/238/230 138/239/230 142/240/230 141/241/230
f  140/95/231 139/94/232 141/97/231 144/96/233
f  137/242/234 140/243/235 144/244/234 143/245/236
f  148/246/237 146/247/238 147/248/237 145/249/239
f  151/250/240 150/251/241 152/252/240 149/253/242
f  145/131/243 149/139/244 152/138/243 148/130/245
f  147/254/246 151/255/247 149/256/246 145/257/248
f  146/130/249 150/138/250 151/139/249 147/131/251
f  148/258/252 152/259/252 150/260/252 146/261/252
f  155/262/253 153/263/254 156/264/253 154/265/255
f  160/266/256 157/267/257 159/268/256 158/269/258
f  154/130/259 158/133/260 159/132/259 155/131/261
f  156/270/262 160/271/262 158/272/262 154/273/262
f  153/131/263 157/132/263 160/133/263 156/130/263
f  155/274/264 159/275/265 157/276/264 153/277/266
